<svg xmlns="http://www.w3.org/2000/svg" width="51.198" height="45.51" viewBox="0 0 51.198 45.51">
  <defs>
    <style>
      .cls-1 {
        fill: #db4444;
      }
    </style>
  </defs>
  <g id="noun_cart_927428" transform="translate(0 0)">
    <g id="Group_362" data-name="Group 362" transform="translate(0 0)">
      <path id="Path_273" data-name="Path 273" class="cls-1" d="M6.707,962.362a1.707,1.707,0,1,0,0,3.413h5.671c2.825,7,5.607,14,8.409,21.013l-2.578,6.2a1.707,1.707,0,0,0,1.582,2.365H48.235a1.707,1.707,0,1,0,0-3.413H22.351l1.476-3.52,27.395-2.187a1.755,1.755,0,0,0,1.529-1.316l3.413-14.791a1.786,1.786,0,0,0-1.671-2.08H16.964l-1.849-4.622a1.75,1.75,0,0,0-1.582-1.067Zm11.626,9.1h10.56v5.12H20.378Zm13.973,0h6.827v5.12H32.306Zm10.24,0h9.8l-1.173,5.12H42.546ZM21.747,980h7.146v4.6l-5.138.409Zm10.56,0h6.827v3.786l-6.827.551Zm10.24,0h7.822l-.676,2.951-7.146.569Zm-17.066,16.5a5.689,5.689,0,1,0,5.689,5.689A5.715,5.715,0,0,0,25.48,996.495Zm17.066,0a5.689,5.689,0,1,0,5.689,5.689A5.715,5.715,0,0,0,42.546,996.495ZM25.48,999.908a2.276,2.276,0,1,1-2.276,2.276A2.25,2.25,0,0,1,25.48,999.908Zm17.066,0a2.276,2.276,0,1,1-2.276,2.276A2.25,2.25,0,0,1,42.546,999.908Z" transform="translate(-5 -962.362)"/>
    </g>
  </g>
</svg>
