<svg xmlns="http://www.w3.org/2000/svg" width="25.958" height="16" viewBox="0 0 25.958 16">
  <defs>
    <style>
      .cls-1 {
        fill: #535353;
      }
    </style>
  </defs>
  <g id="Group_318" data-name="Group 318" transform="translate(-106 -297.763)">
    <path id="Path_92" data-name="Path 92" class="cls-1" d="M106,309.915c.047-.357.086-.715.142-1.071a12.8,12.8,0,0,1,5.756-8.99,11.95,11.95,0,0,1,6.341-2.082,12.711,12.711,0,0,1,12.08,6.657,12.407,12.407,0,0,1,1.618,7.014h-9.384v-1.494h7.856a11.467,11.467,0,0,0-2.8-6.754l-1.2,1.215-1.068-1.069,1.215-1.2a11.558,11.558,0,0,0-6.8-2.844v4.526h-1.534V299.3a11.465,11.465,0,0,0-6.741,2.786l1.167,1.158-1.074,1.07-1.165-1.175a11.516,11.516,0,0,0-2.85,6.792h7.875v1.527H115.1q-4.385,0-8.77,0c-.109,0-.217.016-.326.024Z" transform="translate(0)"/>
    <path id="Path_93" data-name="Path 93" class="cls-1" d="M223.353,361.238l1.323-.761c.055.088.11.169.159.254q1.515,2.642,3.029,5.285c.064.113.113.205.286.183a3.043,3.043,0,0,1,3.274,2.383,3.069,3.069,0,0,1-5.979,1.39,2.969,2.969,0,0,1,.92-2.989c.049-.047.1-.092.149-.138a.278.278,0,0,0,.023-.05Zm6.6,8a1.533,1.533,0,1,0-1.536,1.537A1.533,1.533,0,0,0,229.954,369.238Z" transform="translate(-109.431 -58.55)"/>
  </g>
</svg>
