<svg xmlns="http://www.w3.org/2000/svg" width="56.94" height="49.338" viewBox="0 0 56.94 49.338">
  <defs>
    <style>
      .cls-1 {
        fill: #fff;
      }
    </style>
  </defs>
  <g id="Group_411" data-name="Group 411" transform="translate(-1.367 0.141)">
    <g id="noun_design_3105513" transform="translate(1.367 -0.141)">
      <g id="Group_327" data-name="Group 327">
        <path id="Path_99" data-name="Path 99" class="cls-1" d="M10.3,56.166a4.963,4.963,0,0,1-1.311-.894c-.3-.3-.357-.477-.357-.6v-.3a1.739,1.739,0,0,1,.119-.536,1.2,1.2,0,0,1,.417-.536,7.5,7.5,0,0,1,3.1-1.132c1.43-.238,3.038-.417,4.706-.655a27.042,27.042,0,0,0,5.659-1.311,7.715,7.715,0,0,0,3.4-2.621A6.659,6.659,0,0,0,26.984,43a8.548,8.548,0,0,0-1.43-3.693,8.271,8.271,0,0,0-2.74-2.5,22.889,22.889,0,0,0-5.361-2.085,11.554,11.554,0,0,1-3.276-1.191c-.3-.3-.536-.6-.119-1.549a6.45,6.45,0,0,1,2.5-2.621,20.2,20.2,0,0,1,3.932-1.966h.06A2.048,2.048,0,0,0,21.8,25.129a2.073,2.073,0,0,0-2.383-1.549,20.234,20.234,0,0,0-5.242,1.787,11.333,11.333,0,0,0-4.647,4.17,6.713,6.713,0,0,0-1.013,3.693,6.193,6.193,0,0,0,1.549,3.991,8.251,8.251,0,0,0,1.549,1.37,7.164,7.164,0,0,0,1.489.774c.894.417,1.728.655,2.562.953a18.062,18.062,0,0,1,3.813,1.668,2.272,2.272,0,0,1,1.191,1.787v.3a1.818,1.818,0,0,1-.536.3,16.044,16.044,0,0,1-4.051.834c-1.608.179-3.336.417-5.123.774A12.719,12.719,0,0,0,5,48.66a7.426,7.426,0,0,0-2.2,3.574A12.114,12.114,0,0,0,2.5,54.2a6.9,6.9,0,0,0,.3,2.145A6.707,6.707,0,0,0,5.181,59.8,9.562,9.562,0,0,0,8.1,61.408,30.39,30.39,0,0,0,18.882,62.9a67.8,67.8,0,0,0,7.864-.6,4.832,4.832,0,0,1,.715-2.264,4.515,4.515,0,0,0,.715-1.549c-3.038,0-6.136-.119-9.174-.417A29.168,29.168,0,0,1,10.3,56.166Z" transform="translate(-2.5 -14.472)"/>
        <path id="Path_100" data-name="Path 100" class="cls-1" d="M80.055,9.423a5.831,5.831,0,0,0-7.923,3.157L62.6,36.29h0a9.794,9.794,0,0,1,4.289.953,9.657,9.657,0,0,1,3.455,2.681l12.212-22.4A5.709,5.709,0,0,0,80.055,9.423Z" transform="translate(-26.414 -8.868)"/>
        <path id="Path_101" data-name="Path 101" class="cls-1" d="M60,61.276a6.774,6.774,0,0,0-8.936,3.217c-1.668,3.574,1.251,7.625-1.906,12.451a1.184,1.184,0,0,0,1.191,1.847c7.268-1.013,11.259-5.123,12.868-8.638A6.725,6.725,0,0,0,60,61.276Z" transform="translate(-21.019 -29.471)"/>
      </g>
    </g>
  </g>
</svg>
