<svg xmlns="http://www.w3.org/2000/svg" width="18.465" height="16" viewBox="0 0 18.465 16">
  <defs>
    <style>
      .cls-1 {
        fill: #535353;
      }
    </style>
  </defs>
  <g id="Group_325" data-name="Group 325" transform="translate(-1.367 0.141)">
    <g id="noun_design_3105513" transform="translate(-1.133 -9.009)">
      <g id="Group_327" data-name="Group 327" transform="translate(2.5 8.868)">
        <path id="Path_99" data-name="Path 99" class="cls-1" d="M5.031,34.128a1.609,1.609,0,0,1-.425-.29c-.1-.1-.116-.155-.116-.193v-.1a.564.564,0,0,1,.039-.174.389.389,0,0,1,.135-.174,2.431,2.431,0,0,1,1-.367c.464-.077.985-.135,1.526-.213A8.769,8.769,0,0,0,9.03,32.2a2.5,2.5,0,0,0,1.1-.85,2.159,2.159,0,0,0,.309-1.488,2.772,2.772,0,0,0-.464-1.2,2.682,2.682,0,0,0-.889-.811,7.423,7.423,0,0,0-1.739-.676,3.747,3.747,0,0,1-1.063-.386c-.1-.1-.174-.193-.039-.5a2.092,2.092,0,0,1,.811-.85A6.551,6.551,0,0,1,8.334,24.8h.019a.664.664,0,0,0,.406-.734.672.672,0,0,0-.773-.5,6.562,6.562,0,0,0-1.7.58A3.675,3.675,0,0,0,4.78,25.492a2.177,2.177,0,0,0-.328,1.2,2.008,2.008,0,0,0,.5,1.294,2.676,2.676,0,0,0,.5.444,2.323,2.323,0,0,0,.483.251c.29.135.56.213.831.309a5.857,5.857,0,0,1,1.236.541.737.737,0,0,1,.386.58v.1a.59.59,0,0,1-.174.1,5.2,5.2,0,0,1-1.314.27c-.522.058-1.082.135-1.661.251a4.125,4.125,0,0,0-1.932.869A2.408,2.408,0,0,0,2.6,32.853a3.928,3.928,0,0,0-.1.638,2.236,2.236,0,0,0,.1.7,2.175,2.175,0,0,0,.773,1.12,3.1,3.1,0,0,0,.947.522,9.855,9.855,0,0,0,3.5.483,21.985,21.985,0,0,0,2.55-.193,1.567,1.567,0,0,1,.232-.734,1.464,1.464,0,0,0,.232-.5c-.985,0-1.99-.039-2.975-.135A9.459,9.459,0,0,1,5.031,34.128Z" transform="translate(-2.5 -20.607)"/>
        <path id="Path_100" data-name="Path 100" class="cls-1" d="M68.26,9.048a1.891,1.891,0,0,0-2.569,1.024L62.6,17.761h0a3.176,3.176,0,0,1,1.391.309,3.132,3.132,0,0,1,1.12.869l3.96-7.264A1.851,1.851,0,0,0,68.26,9.048Z" transform="translate(-50.865 -8.868)"/>
        <path id="Path_101" data-name="Path 101" class="cls-1" d="M52.524,60.854a2.2,2.2,0,0,0-2.9,1.043c-.541,1.159.406,2.473-.618,4.038a.384.384,0,0,0,.386.6,5.17,5.17,0,0,0,4.173-2.8A2.181,2.181,0,0,0,52.524,60.854Z" transform="translate(-39.884 -50.54)"/>
      </g>
    </g>
  </g>
</svg>
