<svg xmlns="http://www.w3.org/2000/svg" width="52.394" height="33.146" viewBox="0 0 52.394 33.146">
  <defs>
    <style>
      .cls-1 {
        fill: #fff;
      }
    </style>
  </defs>
  <path id="Icon_metro-dollars" data-name="Icon metro-dollars" class="cls-1" d="M52.21,35.964,52.289,12.4l-42.811.026v-2.7H54.965v26.24H52.21ZM50.822,40.11l-2.753,0,.079-23.562-42.811.028v-2.7H50.823V40.11Zm-4.056,2.762H2.571V18.012H46.765v24.86ZM44,20.689H5.333V40.11H44V20.689ZM39.86,38.039a2.021,2.021,0,0,0,.139.689H24.667c3.814,0,6.906-3.709,6.906-8.287s-3.093-8.287-6.906-8.287H40a2.022,2.022,0,0,0-.139.691,2.07,2.07,0,0,0,2.071,2.071,2.022,2.022,0,0,0,.691-.139V36.1a2.022,2.022,0,0,0-2.76,1.934ZM37.1,27.566c-1.144,0-2.071,1.235-2.071,2.762s.927,2.762,2.071,2.762,2.071-1.235,2.071-2.762S38.242,27.566,37.1,27.566Zm-9.538-2.1a.643.643,0,0,1,.051.16,1.415,1.415,0,0,1,.029.251c.007.1.01.226.01.376,0,.167,0,.309-.012.423a1.922,1.922,0,0,1-.043.285.357.357,0,0,1-.085.164.216.216,0,0,1-.152.052.729.729,0,0,1-.3-.12c-.139-.081-.309-.167-.509-.261a4.868,4.868,0,0,0-.7-.258,3.1,3.1,0,0,0-.871-.116,2.064,2.064,0,0,0-.647.09,1.332,1.332,0,0,0-.462.25.978.978,0,0,0-.276.382,1.245,1.245,0,0,0-.091.473,1.048,1.048,0,0,0,.2.644,1.93,1.93,0,0,0,.545.483,5.836,5.836,0,0,0,.772.4q.43.186.88.392A8.76,8.76,0,0,1,26.78,30a3.5,3.5,0,0,1,.768.629,2.937,2.937,0,0,1,.545.863,3.024,3.024,0,0,1,.207,1.169,3.449,3.449,0,0,1-.328,1.543,3.19,3.19,0,0,1-.889,1.11,3.863,3.863,0,0,1-1.311.667c-.063.019-.132.028-.2.043v1.508H24.215V36.2c-.018,0-.033,0-.051,0a5.834,5.834,0,0,1-1.074-.094,6.422,6.422,0,0,1-.876-.226,3.847,3.847,0,0,1-.634-.279,1.758,1.758,0,0,1-.367-.256.647.647,0,0,1-.16-.323,2.95,2.95,0,0,1-.048-.609c0-.178.006-.328.018-.448a1.273,1.273,0,0,1,.057-.3.329.329,0,0,1,.1-.16.256.256,0,0,1,.15-.047.707.707,0,0,1,.342.143,6.063,6.063,0,0,0,.565.314,5.182,5.182,0,0,0,.825.314,3.89,3.89,0,0,0,1.109.143,2.556,2.556,0,0,0,.742-.1,1.678,1.678,0,0,0,.557-.28,1.213,1.213,0,0,0,.349-.449,1.426,1.426,0,0,0,.121-.6,1.053,1.053,0,0,0-.207-.652,2.049,2.049,0,0,0-.539-.484,5.569,5.569,0,0,0-.754-.4c-.283-.124-.572-.255-.871-.393a7.925,7.925,0,0,1-.871-.47,3.485,3.485,0,0,1-.754-.63,2.988,2.988,0,0,1-.539-.866,3.527,3.527,0,0,1,.091-2.609,2.9,2.9,0,0,1,.8-1.009,3.443,3.443,0,0,1,1.19-.6,4.99,4.99,0,0,1,.727-.15V23.275h1.358V24.7c.054.007.108,0,.161.012a5.414,5.414,0,0,1,.743.163,4.079,4.079,0,0,1,.611.232,1.446,1.446,0,0,1,.356.214.546.546,0,0,1,.113.141Zm-9.8,4.979c0,4.576,3.091,8.287,6.9,8.287H9.337a2.023,2.023,0,0,0-2.622-2.622V24.779a2.022,2.022,0,0,0,.691.139,2.023,2.023,0,0,0,1.932-2.762H24.667c-3.814,0-6.9,3.709-6.9,8.285Zm-5.525-2.876c-1.144,0-2.071,1.235-2.071,2.762s.928,2.762,2.071,2.762,2.071-1.235,2.071-2.762S13.382,27.566,12.238,27.566Z" transform="translate(-2.571 -9.726)"/>
</svg>
