<svg xmlns="http://www.w3.org/2000/svg" width="24.201" height="46.481" viewBox="0 0 24.201 46.481">
  <defs>
    <style>
      .cls-1 {
        fill: #fff;
      }
    </style>
  </defs>
  <path id="Icon_metro-dollar2" data-name="Icon metro-dollar2" class="cls-1" d="M34.158,32.94a9.868,9.868,0,0,1-2.581,6.835,11.139,11.139,0,0,1-6.7,3.541v4.539a.8.8,0,0,1-.83.83h-3.5a.842.842,0,0,1-.83-.83V43.315a16.35,16.35,0,0,1-3.307-.8,17.413,17.413,0,0,1-2.633-1.154,17.471,17.471,0,0,1-1.919-1.245,14.782,14.782,0,0,1-1.206-.973q-.324-.311-.454-.467a.788.788,0,0,1-.052-1.063l2.672-3.5a.807.807,0,0,1,.6-.311.643.643,0,0,1,.623.233l.052.052a13.544,13.544,0,0,0,6.3,3.242,9.06,9.06,0,0,0,1.919.207A6.289,6.289,0,0,0,26,36.416a3.633,3.633,0,0,0,1.6-3.164,2.63,2.63,0,0,0-.389-1.375,4.86,4.86,0,0,0-.869-1.089,7.119,7.119,0,0,0-1.517-.973q-1.037-.532-1.712-.83t-2.075-.843q-1.012-.415-1.6-.648t-1.6-.687q-1.012-.454-1.621-.8t-1.466-.921a9.134,9.134,0,0,1-1.388-1.1,16.166,16.166,0,0,1-1.128-1.271,6.346,6.346,0,0,1-.921-1.5,10.4,10.4,0,0,1-.545-1.725,9,9,0,0,1-.22-2.023A8.869,8.869,0,0,1,13.1,11.178,11.869,11.869,0,0,1,19.711,7.7V3.033a.842.842,0,0,1,.83-.83h3.5a.8.8,0,0,1,.83.83V7.6a14.428,14.428,0,0,1,2.866.6A16.618,16.618,0,0,1,30,9.064a12.5,12.5,0,0,1,1.647.973q.778.545,1.012.752t.389.363a.75.75,0,0,1,.13.986l-2.1,3.787a.707.707,0,0,1-.6.415.827.827,0,0,1-.7-.182q-.078-.078-.376-.311t-1.012-.687a13.385,13.385,0,0,0-1.517-.83,11.585,11.585,0,0,0-1.932-.674,8.654,8.654,0,0,0-2.218-.3,6.741,6.741,0,0,0-4.02,1.115A3.487,3.487,0,0,0,17.363,18.6a2.919,2.919,0,0,0,.765,1.076,11.43,11.43,0,0,0,1.025.856,9.136,9.136,0,0,0,1.453.8q.973.454,1.569.7t1.816.713q1.375.519,2.1.817t1.971.908a15.67,15.67,0,0,1,1.958,1.1,16.561,16.561,0,0,1,1.608,1.3A6.716,6.716,0,0,1,33,28.518a9.4,9.4,0,0,1,.817,1.984,8.557,8.557,0,0,1,.337,2.438Z" transform="translate(-9.957 -2.203)"/>
</svg>
