<svg xmlns="http://www.w3.org/2000/svg" width="56.291" height="38.766" viewBox="0 0 56.291 38.766">
  <defs>
    <style>
      .cls-1 {
        fill: #db4444;
      }
    </style>
  </defs>
  <g id="noun_dollar_2086313" transform="translate(0 0)">
    <path id="Path_274" data-name="Path 274" class="cls-1" d="M56.649,19.02H9.642Q7.393,32.773,5,46.527H61.291Q58.9,32.774,56.649,19.02ZM52.225,43.253H14.066a7.6,7.6,0,0,0-4.7-4.822q.86-5.657,1.7-11.315a9.716,9.716,0,0,0,5.447-4.822H49.778a9.711,9.711,0,0,0,5.447,4.822q.838,5.658,1.7,11.315A7.6,7.6,0,0,0,52.225,43.253Z" transform="translate(-5 -19.02)"/>
    <path id="Path_275" data-name="Path 275" class="cls-1" d="M44.323,25.892c-4.843,0-9.072,4.233-9.456,9.456S38.712,44.8,44.323,44.8s9.841-4.233,9.456-9.456S49.167,25.892,44.323,25.892Zm.753,14.837q0,.842.008,1.683H43.562q0-.842.008-1.683a3.207,3.207,0,0,1-2.945-3.021H42.1c-.015.883,1,1.628,2.221,1.628s2.236-.745,2.221-1.628c0-.277-.023-1.121-2.381-1.647-2.323-.519-3.464-1.551-3.426-3.067a3.333,3.333,0,0,1,2.884-3.021q0-.846.008-1.691h1.388q0,.846.008,1.691a3.332,3.332,0,0,1,2.884,3.021H46.476a2.238,2.238,0,0,0-4.307,0c0,.277-.023,1.12,2.312,1.647,2.3.519,3.5,1.551,3.539,3.067A3.208,3.208,0,0,1,45.076,40.729Z" transform="translate(-16.178 -21.594)"/>
    <rect id="Rectangle_334" data-name="Rectangle 334" class="cls-1" width="56.291" height="3.127" transform="translate(0 30.009)"/>
    <rect id="Rectangle_335" data-name="Rectangle 335" class="cls-1" width="56.291" height="3.127" transform="translate(0 35.638)"/>
  </g>
</svg>
