<svg id="noun_filters_2161054" xmlns="http://www.w3.org/2000/svg" width="18" height="18" viewBox="0 0 18 18">
  <defs>
    <style>
      .cls-1 {
        fill: #fff;
      }
    </style>
  </defs>
  <path id="Path_1" data-name="Path 1" class="cls-1" d="M10.9,19.325a2.569,2.569,0,0,0-1.867-2.47V6.7a.7.7,0,1,0-1.4,0V16.855a2.566,2.566,0,0,0,0,4.94v1.5a.7.7,0,1,0,1.4,0V21.8A2.569,2.569,0,0,0,10.9,19.325ZM8.333,20.5A1.17,1.17,0,1,1,9.5,19.33,1.169,1.169,0,0,1,8.333,20.5Z" transform="translate(-5.763 -6)"/>
  <path id="Path_2" data-name="Path 2" class="cls-1" d="M37.079,19.325a2.569,2.569,0,0,0-1.867-2.47V6.7a.7.7,0,1,0-1.4,0V16.855a2.566,2.566,0,0,0,0,4.94v1.5a.7.7,0,1,0,1.4,0V21.8A2.569,2.569,0,0,0,37.079,19.325ZM34.513,20.5a1.17,1.17,0,1,1,1.168-1.17A1.169,1.169,0,0,1,34.513,20.5Z" transform="translate(-19.079 -6)"/>
  <path id="Path_3" data-name="Path 3" class="cls-1" d="M18.86,10.68a2.569,2.569,0,0,0,1.867,2.47V23.305a.7.7,0,1,0,1.4,0V13.15a2.566,2.566,0,0,0,0-4.94V6.71a.7.7,0,1,0-1.4,0v1.5A2.569,2.569,0,0,0,18.86,10.68Zm2.566-1.175a1.17,1.17,0,1,1-1.168,1.17A1.169,1.169,0,0,1,21.426,9.505Z" transform="translate(-12.424 -6.005)"/>
</svg>
