<svg id="noun_Music_1211246" xmlns="http://www.w3.org/2000/svg" width="17.668" height="18" viewBox="0 0 17.668 18">
  <defs>
    <style>
      .cls-1 {
        fill: #212121;
      }
    </style>
  </defs>
  <path id="Path_19" data-name="Path 19" class="cls-1" d="M-929.509,953.526l-10.27,1.535a1.329,1.329,0,0,0-1.137,1.326v9.626a3.878,3.878,0,0,0-1.933-.114,3.114,3.114,0,0,0-2.747,3.411,3.108,3.108,0,0,0,3.828,2.122,3.219,3.219,0,0,0,2.785-2.918v-9.626l9.076-1.364v6.556a3.877,3.877,0,0,0-1.933-.114,3.114,3.114,0,0,0-2.747,3.411,3.108,3.108,0,0,0,3.828,2.122,3.219,3.219,0,0,0,2.785-2.918V954.852A1.332,1.332,0,0,0-929.509,953.526Z" transform="translate(945.642 -953.508)"/>
</svg>
