<svg xmlns="http://www.w3.org/2000/svg" width="17.5" height="14" viewBox="0 0 17.5 14">
  <defs>
    <style>
      .cls-1 {
        fill: #fcc201;
      }
    </style>
  </defs>
  <path id="Icon_awesome-crown" data-name="Icon awesome-crown" class="cls-1" d="M14.437,12.25H3.063a.439.439,0,0,0-.438.437v.875A.439.439,0,0,0,3.063,14H14.437a.439.439,0,0,0,.438-.437v-.875A.439.439,0,0,0,14.437,12.25Zm1.75-8.75a1.313,1.313,0,0,0-1.312,1.313,1.286,1.286,0,0,0,.12.541l-1.98,1.187a.874.874,0,0,1-1.209-.317l-2.229-3.9a1.313,1.313,0,1,0-1.657,0l-2.229,3.9a.874.874,0,0,1-1.209.317L2.507,5.354a1.312,1.312,0,1,0-1.195.771A1.34,1.34,0,0,0,1.523,6.1L3.5,11.375H14L15.977,6.1a1.34,1.34,0,0,0,.211.022,1.313,1.313,0,0,0,0-2.625Z"/>
</svg>
