<svg id="noun_Vector_2825696" xmlns="http://www.w3.org/2000/svg" width="16" height="16" viewBox="0 0 16 16">
  <defs>
    <style>
      .cls-1 {
        fill: #535353;
      }
    </style>
  </defs>
  <path id="Path_20" data-name="Path 20" class="cls-1" d="M17.871,30.977H12.859a.889.889,0,0,0,0,1.778h5.011a.889.889,0,0,0,0-1.778Z" transform="translate(-7.366 -16.755)"/>
  <path id="Path_21" data-name="Path 21" class="cls-1" d="M16.883,1.943a.828.828,0,0,0-.768.645H10.574V1.865H8.813v.724H3.274a.828.828,0,0,0-.768-.645.877.877,0,0,0-.811.932.877.877,0,0,0,.811.932.828.828,0,0,0,.768-.645H7.246a7.276,7.276,0,0,0-3.8,6.544.925.925,0,0,0-.564.883.878.878,0,0,0,.812.932.877.877,0,0,0,.811-.932.923.923,0,0,0-.561-.881c.021-3.228,2.1-5.975,4.864-6.464v.641h1.76V3.244c2.769.489,4.843,3.235,4.864,6.464a.924.924,0,0,0-.56.881.82.82,0,1,0,1.624,0,.925.925,0,0,0-.564-.883,7.278,7.278,0,0,0-3.794-6.544h3.971a.829.829,0,0,0,.768.645.877.877,0,0,0,.811-.932A.877.877,0,0,0,16.883,1.943Z" transform="translate(-1.694 -1.865)"/>
  <path id="Path_22" data-name="Path 22" class="cls-1" d="M14.975,8.827v5.645a1.1,1.1,0,1,1-.574,0V8.827H13.395L10.42,16.069l2.135,4.656h4.267l2.133-4.656L15.98,8.827Z" transform="translate(-6.688 -7.077)"/>
</svg>
